<svg xmlns="http://www.w3.org/2000/svg" viewBox="0 0 40 40" fill="currentColor"><path fill-rule="evenodd" d="M23.01 14a25 25 0 0 0 0 2l.02.26a1 1 0 0 0 .71.7l.26.03a25 25 0 0 0 2 0l.26-.02a1 1 0 0 0 .7-.71l.03-.26a25 25 0 0 0 0-2l-.02-.26a1 1 0 0 0-.71-.7l-.26-.03a25 25 0 0 0-2 0l-.26.02a1 1 0 0 0-.7.71s-.02.04-.03.26m2.4 5c.66 0 1.05-.02 1.37-.1a3 3 0 0 0 2.12-2.12c.1-.39.1-.85.1-1.78s0-1.4-.1-1.78a3 3 0 0 0-2.12-2.12c-.39-.1-.85-.1-1.78-.1s-1.4 0-1.78.1a3 3 0 0 0-2.12 2.12c-.08.32-.1.7-.1 1.37v.81c0 .67.02 1.06.1 1.38a3 3 0 0 0 2.12 2.12c.32.08.7.1 1.37.1h.81M19 15.4v-.8c0-.67-.02-1.06-.1-1.38a3 3 0 0 0-2.12-2.12c-.39-.1-.85-.1-1.78-.1s-1.4 0-1.78.1a3 3 0 0 0-2.12 2.12c-.1.38-.1.85-.1 1.78s0 1.4.1 1.78a3 3 0 0 0 2.12 2.12c.32.08.7.1 1.37.1h.81c.67 0 1.06-.02 1.38-.1a3 3 0 0 0 2.12-2.12c.08-.32.1-.7.1-1.37M15.4 21h-.8c-.67 0-1.06.02-1.38.1a3 3 0 0 0-2.12 2.12c-.1.39-.1.85-.1 1.78s0 1.4.1 1.78a3 3 0 0 0 2.12 2.12c.38.1.85.1 1.78.1s1.4 0 1.78-.1a3 3 0 0 0 2.12-2.12c.08-.32.1-.7.1-1.37v-.81c0-.67-.02-1.06-.1-1.38a3 3 0 0 0-2.12-2.12c-.32-.08-.7-.1-1.37-.1m5.6 3.6v.8c0 .67.02 1.06.1 1.38a3 3 0 0 0 2.12 2.12c.39.1.85.1 1.78.1s1.4 0 1.78-.1a3 3 0 0 0 2.12-2.12c.1-.39.1-.85.1-1.78s0-1.4-.1-1.78a3 3 0 0 0-2.12-2.12c-.32-.08-.7-.1-1.37-.1h-.81c-.67 0-1.06.02-1.38.1a3 3 0 0 0-2.12 2.12c-.08.32-.1.7-.1 1.37m2.01-.6a25 25 0 0 0 .02 2.26 1 1 0 0 0 .71.7s.04.02.26.03a25 25 0 0 0 2 0l.26-.02a1 1 0 0 0 .7-.71s.02-.04.03-.26a25 25 0 0 0 0-2l-.02-.26a1 1 0 0 0-.71-.7l-.26-.03a25 25 0 0 0-2 0l-.26.02a1 1 0 0 0-.7.71s-.02.04-.03.26m-10 0a25 25 0 0 0 0 2l.02.26a1 1 0 0 0 .71.7s.04.02.26.03a25 25 0 0 0 2.26-.02 1 1 0 0 0 .7-.71s.02-.04.03-.26a25 25 0 0 0-.02-2.26 1 1 0 0 0-.71-.7s-.04-.02-.26-.03a25 25 0 0 0-2.26.02 1 1 0 0 0-.7.71M13 24c0-.19.02-.25.02-.26zm0-10a25 25 0 0 0 0 2l.02.26a1 1 0 0 0 .71.7s.04.02.26.03a25 25 0 0 0 2 0l.26-.02a1 1 0 0 0 .7-.71s.02-.04.03-.26a25 25 0 0 0-.02-2.26 1 1 0 0 0-.71-.7s-.04-.02-.26-.03a25 25 0 0 0-2 0l-.26.02a1 1 0 0 0-.7.71s-.02.04-.03.26" clip-rule="evenodd"/></svg>