<svg viewBox="0 0 40 40" fill="currentColor" xmlns="http://www.w3.org/2000/svg"><path fill-rule="evenodd" clip-rule="evenodd" d="M10 18c0-1.864 0-2.796.305-3.53a4 4 0 0 1 2.164-2.165C13.204 12 14.136 12 16 12h8c1.864 0 2.796 0 3.53.305a4 4 0 0 1 2.165 2.164C30 15.204 30 16.136 30 18v4c0 1.864 0 2.796-.305 3.53a4 4 0 0 1-2.164 2.165C26.796 28 25.864 28 24 28h-8c-1.864 0-2.796 0-3.53-.305a4 4 0 0 1-2.165-2.164C10 24.796 10 23.864 10 22v-4zm2-.693V22c0 .96.001 1.578.033 2.052.032.457.085.63.12.713a2 2 0 0 0 1.082 1.083c.083.034.257.088.713.119.473.032 1.093.033 2.052.033h8c.96 0 1.578-.001 2.052-.033.457-.031.63-.085.713-.12a2 2 0 0 0 1.083-1.082c.034-.083.088-.256.119-.713.032-.474.033-1.093.033-2.052v-4.68l-8.001 4.604L12 17.307zm15.8-2.179a2 2 0 0 0-1.035-.976c-.083-.034-.256-.087-.713-.119C25.578 14.001 24.96 14 24 14h-8c-.96 0-1.579.001-2.053.033-.455.032-.63.085-.712.12a2 2 0 0 0-1.03.963l7.795 4.5 7.8-4.488z"/></svg>