<svg viewBox="0 0 32 32" fill="none" xmlns="http://www.w3.org/2000/svg"><path d="M15.375 26.001C21.243 26.001 26 21.337 26 15.376c0-5.025-3.38-9.415-7.956-10.618-.853-.224-9.021 4.832-13.294 10.618C4.75 21.336 9.507 26 15.375 26z" fill="#1DB232"/><path d="M17.642 4.75c6.64 0 9.858 3.305 9.858 7.366 0 1.21-.667 2.25-1.517 3.259 0-5.169-3.783-9.286-8.341-9.286-2.275 0-3.733 1.723-5.187 3.422-1.65 1.931-2.358 3.095-3.449 4.186-1.09 1.092-2.595 1.678-4.256 1.678C4.75 9.412 9.59 4.75 15.367 4.75h2.275z" fill="#444"/></svg>