<svg width="32" height="32" fill="none" xmlns="http://www.w3.org/2000/svg"><path fill-rule="evenodd" clip-rule="evenodd" d="M12.45 9.02c.37 0 .73.04 1.08.11a6.97 6.97 0 0 1 13.56 3.16h.16a4.1 4.1 0 0 1 4.08 4.09c0 2.26-1.7 3.96-3.86 4.08v.01H12.84v-.02l-.39.02a5.72 5.72 0 0 1 0-11.45Z" fill="url(#a)" fill-opacity=".4"/><path fill-rule="evenodd" clip-rule="evenodd" d="M21.3 13.78c-.4 0-.78.04-1.15.12a7.37 7.37 0 0 0-14.34 3.33h-.16a4.32 4.32 0 0 0-.23 8.63v.02h15.46v-.03c.14.01.27.03.41.03a6.05 6.05 0 0 0 0-12.1Z" fill="url(#b)"/><defs><linearGradient id="a" x1="18.72" y1="20.47" x2="18.72" y2="4.11" gradientUnits="userSpaceOnUse"><stop stop-color="#AFD4FF"/><stop offset="1" stop-color="#B7E1FF"/></linearGradient><linearGradient id="b" x1="14.67" y1="25.88" x2="14.67" y2="8.6" gradientUnits="userSpaceOnUse"><stop stop-color="#B6D3FF"/><stop offset="1" stop-color="#C9E5FF"/></linearGradient></defs></svg>